<svg width="15" height="15" viewBox="0 0 15 15" fill="none" xmlns="http://www.w3.org/2000/svg">
<path fill-rule="evenodd" clip-rule="evenodd" d="M13.5 2.25001C13.9142 2.25001 14.25 2.5858 14.25 3.00001V9.75001C14.25 10.1642 13.9142 10.5 13.5 10.5H12.75C12.3358 10.5 12 10.1642 12 9.75001V3.00001C12 2.5858 12.3358 2.25001 12.75 2.25001H13.5ZM1.97727 10.7906C1.30227 10.7906 0.75 10.1994 0.75 9.47671C0.759695 8.47239 0.783758 7.91847 0.822192 7.81494C0.860626 7.7114 1.49111 6.11921 2.71364 3.03837C2.89773 2.5785 4.40981 2.25001 4.90072 2.25001H9.21C9.885 2.25001 10.875 2.84128 10.875 3.56395V10.5L6.80457 14.7121L6.80226 14.7145C6.44071 15.0859 5.84646 15.094 5.47498 14.7324C5.35227 14.5354 5.22955 14.2726 5.22955 14.0098C5.22955 13.9441 5.22955 13.8784 5.22955 13.8127L5.84318 10.7906H1.97727Z" fill="#BCBFC2"/>
</svg>
